<?xml version="1.0" encoding="UTF-8" standalone="no"?>
<!-- Created with Inkscape (http://www.inkscape.org/) -->

<svg
   width="210mm"
   height="297mm"
   viewBox="0 0 210 297"
   version="1.1"
   id="svg5"
   xml:space="preserve"
   inkscape:version="1.2.2 (b0a8486, 2022-12-01)"
   sodipodi:docname="homepage-spash-image.svg"
   xmlns:inkscape="http://www.inkscape.org/namespaces/inkscape"
   xmlns:sodipodi="http://sodipodi.sourceforge.net/DTD/sodipodi-0.dtd"
   xmlns:xlink="http://www.w3.org/1999/xlink"
   xmlns="http://www.w3.org/2000/svg"
   xmlns:svg="http://www.w3.org/2000/svg"><sodipodi:namedview
     id="namedview7"
     pagecolor="#505050"
     bordercolor="#eeeeee"
     borderopacity="1"
     inkscape:showpageshadow="0"
     inkscape:pageopacity="0"
     inkscape:pagecheckerboard="0"
     inkscape:deskcolor="#505050"
     inkscape:document-units="mm"
     showgrid="false"
     inkscape:zoom="1.4034389"
     inkscape:cx="400.08866"
     inkscape:cy="713.96053"
     inkscape:window-width="1920"
     inkscape:window-height="1080"
     inkscape:window-x="1920"
     inkscape:window-y="0"
     inkscape:window-maximized="0"
     inkscape:current-layer="layer1" /><defs
     id="defs2"><linearGradient
       inkscape:collect="always"
       id="linearGradient10051"><stop
         style="stop-color:#ffffff;stop-opacity:1;"
         offset="0"
         id="stop10047" /><stop
         style="stop-color:#ffffff;stop-opacity:0;"
         offset="1"
         id="stop10049" /></linearGradient><linearGradient
       inkscape:collect="always"
       id="linearGradient7205"><stop
         style="stop-color:#ffffff;stop-opacity:1;"
         offset="0"
         id="stop7201" /><stop
         style="stop-color:#ffffff;stop-opacity:0;"
         offset="1"
         id="stop7203" /></linearGradient><inkscape:path-effect
       effect="mirror_symmetry"
       start_point="40.112885,139.08352"
       end_point="64.365391,139.1279"
       center_point="52.239138,139.10571"
       id="path-effect5209"
       is_visible="true"
       lpeversion="1.2"
       lpesatellites=""
       mode="free"
       discard_orig_path="false"
       fuse_paths="false"
       oposite_fuse="false"
       split_items="false"
       split_open="false"
       link_styles="false" /><inkscape:path-effect
       effect="mirror_symmetry"
       start_point="52.464798,205.66555"
       end_point="52.464798,231.29499"
       center_point="52.464798,218.48027"
       id="path-effect5205"
       is_visible="true"
       lpeversion="1.2"
       lpesatellites=""
       mode="free"
       discard_orig_path="false"
       fuse_paths="false"
       oposite_fuse="false"
       split_items="false"
       split_open="false"
       link_styles="false" /><inkscape:path-effect
       effect="mirror_symmetry"
       start_point="40.112885,139.08352"
       end_point="64.365391,139.1279"
       center_point="52.239138,139.10571"
       id="path-effect5199"
       is_visible="true"
       lpeversion="1.2"
       lpesatellites=""
       mode="free"
       discard_orig_path="false"
       fuse_paths="false"
       oposite_fuse="false"
       split_items="false"
       split_open="false"
       link_styles="false" /><inkscape:path-effect
       effect="mirror_symmetry"
       start_point="52.464798,205.66555"
       end_point="52.464798,231.29499"
       center_point="52.464798,218.48027"
       id="path-effect5195"
       is_visible="true"
       lpeversion="1.2"
       lpesatellites=""
       mode="free"
       discard_orig_path="false"
       fuse_paths="false"
       oposite_fuse="false"
       split_items="false"
       split_open="false"
       link_styles="false" /><inkscape:path-effect
       effect="mirror_symmetry"
       start_point="115.32177,164.13556"
       end_point="69.029215,164.17994"
       center_point="92.175495,164.15775"
       id="path-effect4982"
       is_visible="true"
       lpeversion="1.2"
       lpesatellites=""
       mode="free"
       discard_orig_path="false"
       fuse_paths="false"
       oposite_fuse="false"
       split_items="false"
       split_open="false"
       link_styles="false" /><inkscape:path-effect
       effect="mirror_symmetry"
       start_point="40.112885,139.08352"
       end_point="64.365391,139.1279"
       center_point="52.239138,139.10571"
       id="path-effect4980"
       is_visible="true"
       lpeversion="1.2"
       lpesatellites=""
       mode="free"
       discard_orig_path="false"
       fuse_paths="false"
       oposite_fuse="false"
       split_items="false"
       split_open="false"
       link_styles="false" /><inkscape:path-effect
       effect="mirror_symmetry"
       start_point="90.90896,206.23091"
       end_point="90.90896,231.86035"
       center_point="90.90896,219.04563"
       id="path-effect4869"
       is_visible="true"
       lpeversion="1.2"
       lpesatellites=""
       mode="free"
       discard_orig_path="false"
       fuse_paths="false"
       oposite_fuse="false"
       split_items="false"
       split_open="false"
       link_styles="false" /><inkscape:path-effect
       effect="mirror_symmetry"
       start_point="109.56569,206.04246"
       end_point="109.56569,231.6719"
       center_point="109.56569,218.85718"
       id="path-effect4869-7"
       is_visible="true"
       lpeversion="1.2"
       lpesatellites=""
       mode="free"
       discard_orig_path="false"
       fuse_paths="false"
       oposite_fuse="false"
       split_items="false"
       split_open="false"
       link_styles="false" /><inkscape:path-effect
       effect="mirror_symmetry"
       start_point="52.464798,205.66555"
       end_point="52.464798,231.29499"
       center_point="52.464798,218.48027"
       id="path-effect4869-4"
       is_visible="true"
       lpeversion="1.2"
       lpesatellites=""
       mode="free"
       discard_orig_path="false"
       fuse_paths="false"
       oposite_fuse="false"
       split_items="false"
       split_open="false"
       link_styles="false" /><linearGradient
       inkscape:collect="always"
       xlink:href="#linearGradient7205"
       id="linearGradient7209"
       x1="32.049252"
       y1="140.82819"
       x2="104.44285"
       y2="140.82819"
       gradientUnits="userSpaceOnUse"
       gradientTransform="matrix(1.0150932,0,0,0.96079816,-1.5484933,5.9920368)" /><linearGradient
       inkscape:collect="always"
       xlink:href="#linearGradient7205"
       id="linearGradient9827"
       gradientUnits="userSpaceOnUse"
       x1="32.049252"
       y1="140.82819"
       x2="104.44285"
       y2="140.82819"
       gradientTransform="matrix(0.4138165,0,0,2.8268828,66.779164,-284.17888)" /><linearGradient
       inkscape:collect="always"
       xlink:href="#linearGradient7205"
       id="linearGradient9841"
       gradientUnits="userSpaceOnUse"
       x1="32.049252"
       y1="140.82819"
       x2="104.44285"
       y2="140.82819"
       gradientTransform="matrix(-0.29796288,0,0,2.7378042,138.24037,-272.22591)" /><linearGradient
       inkscape:collect="always"
       xlink:href="#linearGradient7205"
       id="linearGradient9855"
       gradientUnits="userSpaceOnUse"
       x1="32.049252"
       y1="140.82819"
       x2="104.44285"
       y2="140.82819"
       gradientTransform="matrix(0.78703721,-0.57745328,0.6952809,0.65365986,-4.41562,88.737049)" /><linearGradient
       inkscape:collect="always"
       xlink:href="#linearGradient7205"
       id="linearGradient9869"
       gradientUnits="userSpaceOnUse"
       x1="32.049252"
       y1="140.82819"
       x2="104.44285"
       y2="140.82819"
       gradientTransform="matrix(0.97600723,0,0,1.0882147,74.807546,12.343173)" /><linearGradient
       inkscape:collect="always"
       xlink:href="#linearGradient7205"
       id="linearGradient9883"
       gradientUnits="userSpaceOnUse"
       x1="32.049252"
       y1="140.82819"
       x2="104.44285"
       y2="140.82819"
       gradientTransform="matrix(0.39695564,0,0,3.5839564,88.420136,-315.22574)" /><linearGradient
       inkscape:collect="always"
       xlink:href="#linearGradient7205"
       id="linearGradient9897"
       gradientUnits="userSpaceOnUse"
       x1="32.049252"
       y1="140.82819"
       x2="104.44285"
       y2="140.82819"
       gradientTransform="matrix(1.0098812,0,0,-1.0961842,-1.5416446,319.19529)" /><linearGradient
       inkscape:collect="always"
       xlink:href="#linearGradient7205"
       id="linearGradient9982"
       gradientUnits="userSpaceOnUse"
       gradientTransform="matrix(-0.38700426,0,0,3.1421903,122.12616,-255.14553)"
       x1="32.049252"
       y1="140.82819"
       x2="104.44285"
       y2="140.82819" /><radialGradient
       inkscape:collect="always"
       xlink:href="#linearGradient10051"
       id="radialGradient10053"
       cx="103.71308"
       cy="148.23772"
       fx="103.71308"
       fy="148.23772"
       r="106.75642"
       gradientTransform="matrix(1,0,0,0.99500521,0,4.2064065)"
       gradientUnits="userSpaceOnUse" /></defs><g
     inkscape:label="Layer 1"
     inkscape:groupmode="layer"
     id="layer1"><circle
       style="fill:#b3b3b3;stroke:none;stroke-width:10.6789;stroke-linecap:round;stroke-dasharray:none;stroke-opacity:1;paint-order:stroke markers fill"
       id="path1903"
       cx="105.29882"
       cy="154.21037"
       r="55.404819" /><path
       style="fill:#b3b3b3;stroke:none;stroke-width:3.487;stroke-linecap:round;stroke-dasharray:none;stroke-opacity:1;paint-order:stroke markers fill"
       id="path4139-9"
       inkscape:path-effect="#path-effect4869-4;#path-effect4980"
       sodipodi:type="arc"
       sodipodi:cx="26.194798"
       sodipodi:cy="218.79251"
       sodipodi:rx="12.81472"
       sodipodi:ry="12.81472"
       d="m 39.009518,218.79251 c 0,7.07738 -5.737346,12.81472 -12.81472,12.81472 -7.077375,0 -12.814721,-5.73734 -12.814721,-12.81472 0,-7.07737 5.737346,-12.81472 12.814721,-12.81472 7.077374,0 12.81472,5.73735 12.81472,12.81472 z m 26.91056,0 c 0,7.07738 5.737346,12.81472 12.81472,12.81472 7.077375,0 12.814721,-5.73734 12.814721,-12.81472 0,-7.07737 -5.737346,-12.81472 -12.814721,-12.81472 -7.077374,0 -12.81472,5.73735 -12.81472,12.81472 z M 39.301245,59.371025 c 0.0259,-7.077327 -5.690407,-12.835632 -12.767735,-12.861534 -7.077327,-0.0259 -12.835631,5.690408 -12.861533,12.767735 -0.0259,7.077327 5.690407,12.835632 12.767734,12.861534 7.077328,0.0259 12.835632,-5.690408 12.861534,-12.767735 z m 26.910381,0.09849 c 0.0259,-7.077327 5.784206,-12.793636 12.861534,-12.767734 7.077327,0.0259 12.793636,5.784206 12.767734,12.861533 -0.0259,7.077328 -5.784206,12.793637 -12.861533,12.767735 -7.077328,-0.0259 -12.793637,-5.784206 -12.767735,-12.861534 z"
       class="UnoptimicedTransforms"
       transform="matrix(0.91870098,0,0,0.91870098,56.344004,26.276603)" /><path
       style="fill:#b3b3b3;stroke:none;stroke-width:3.487;stroke-linecap:round;stroke-dasharray:none;stroke-opacity:1;paint-order:stroke markers fill"
       id="path5191"
       inkscape:path-effect="#path-effect5195;#path-effect5199"
       sodipodi:type="arc"
       sodipodi:cx="26.194798"
       sodipodi:cy="218.79251"
       sodipodi:rx="12.81472"
       sodipodi:ry="12.81472"
       d="m 39.009518,218.79251 c 0,7.07738 -5.737346,12.81472 -12.81472,12.81472 -7.077375,0 -12.814721,-5.73734 -12.814721,-12.81472 0,-7.07737 5.737346,-12.81472 12.814721,-12.81472 7.077374,0 12.81472,5.73735 12.81472,12.81472 z m 26.91056,0 c 0,7.07738 5.737346,12.81472 12.81472,12.81472 7.077375,0 12.814721,-5.73734 12.814721,-12.81472 0,-7.07737 -5.737346,-12.81472 -12.814721,-12.81472 -7.077374,0 -12.81472,5.73735 -12.81472,12.81472 z M 39.301245,59.371025 c 0.0259,-7.077327 -5.690407,-12.835632 -12.767735,-12.861534 -7.077327,-0.0259 -12.835631,5.690408 -12.861533,12.767735 -0.0259,7.077327 5.690407,12.835632 12.767734,12.861534 7.077328,0.0259 12.835632,-5.690408 12.861534,-12.767735 z m 26.910381,0.09849 c 0.0259,-7.077327 5.784206,-12.793636 12.861534,-12.767734 7.077327,0.0259 12.793636,5.784206 12.767734,12.861533 -0.0259,7.077328 -5.784206,12.793637 -12.861533,12.767735 -7.077328,-0.0259 -12.793637,-5.784206 -12.767735,-12.861534 z"
       class="UnoptimicedTransforms"
       transform="matrix(0,0.91870098,-0.91870098,0,232.43036,105.69627)" /><g
       id="g5212"><path
         style="fill:#b3b3b3;stroke:none;stroke-width:3.487;stroke-linecap:round;stroke-dasharray:none;stroke-opacity:1;paint-order:stroke markers fill"
         id="path5201"
         inkscape:path-effect="#path-effect5205;#path-effect5209"
         sodipodi:type="arc"
         sodipodi:cx="26.194798"
         sodipodi:cy="218.79251"
         sodipodi:rx="12.81472"
         sodipodi:ry="12.81472"
         d="m 39.009518,218.79251 c 0,7.07738 -5.737346,12.81472 -12.81472,12.81472 -7.077375,0 -12.814721,-5.73734 -12.814721,-12.81472 0,-7.07737 5.737346,-12.81472 12.814721,-12.81472 7.077374,0 12.81472,5.73735 12.81472,12.81472 z m 26.91056,0 c 0,7.07738 5.737346,12.81472 12.81472,12.81472 7.077375,0 12.814721,-5.73734 12.814721,-12.81472 0,-7.07737 -5.737346,-12.81472 -12.814721,-12.81472 -7.077374,0 -12.81472,5.73735 -12.81472,12.81472 z M 39.301245,59.371025 c 0.0259,-7.077327 -5.690407,-12.835632 -12.767735,-12.861534 -7.077327,-0.0259 -12.835631,5.690408 -12.861533,12.767735 -0.0259,7.077327 5.690407,12.835632 12.767734,12.861534 7.077328,0.0259 12.835632,-5.690408 12.861534,-12.767735 z m 26.910381,0.09849 c 0.0259,-7.077327 5.784206,-12.793636 12.861534,-12.767734 7.077327,0.0259 12.793636,5.784206 12.767734,12.861533 -0.0259,7.077328 -5.784206,12.793637 -12.861533,12.767735 -7.077328,-0.0259 -12.793637,-5.784206 -12.767735,-12.861534 z"
         class="UnoptimicedTransforms"
         transform="matrix(0.91870098,0,0,0.91870098,56.344004,26.276603)" /></g><g
       id="use5214"><path
         style="fill:#b3b3b3;stroke:none;stroke-width:3.487;stroke-linecap:round;stroke-dasharray:none;stroke-opacity:1;paint-order:stroke markers fill"
         id="path5944"
         inkscape:path-effect="#path-effect5205;#path-effect5209"
         sodipodi:type="arc"
         sodipodi:cx="26.194798"
         sodipodi:cy="218.79251"
         sodipodi:rx="12.81472"
         sodipodi:ry="12.81472"
         d="m 39.009518,218.79251 c 0,7.07738 -5.737346,12.81472 -12.81472,12.81472 -7.077375,0 -12.814721,-5.73734 -12.814721,-12.81472 0,-7.07737 5.737346,-12.81472 12.814721,-12.81472 7.077374,0 12.81472,5.73735 12.81472,12.81472 z m 26.91056,0 c 0,7.07738 5.737346,12.81472 12.81472,12.81472 7.077375,0 12.814721,-5.73734 12.814721,-12.81472 0,-7.07737 -5.737346,-12.81472 -12.814721,-12.81472 -7.077374,0 -12.81472,5.73735 -12.81472,12.81472 z M 39.301245,59.371025 c 0.0259,-7.077327 -5.690407,-12.835632 -12.767735,-12.861534 -7.077327,-0.0259 -12.835631,5.690408 -12.861533,12.767735 -0.0259,7.077327 5.690407,12.835632 12.767734,12.861534 7.077328,0.0259 12.835632,-5.690408 12.861534,-12.767735 z m 26.910381,0.09849 c 0.0259,-7.077327 5.784206,-12.793636 12.861534,-12.767734 7.077327,0.0259 12.793636,5.784206 12.767734,12.861533 -0.0259,7.077328 -5.784206,12.793637 -12.861533,12.767735 -7.077328,-0.0259 -12.793637,-5.784206 -12.767735,-12.861534 z"
         class="UnoptimicedTransforms"
         transform="matrix(0.91870098,0,0,0.91870098,56.344004,26.276603)" /></g><path
       style="fill:url(#linearGradient7209);fill-opacity:1;stroke:#b3b3b3;stroke-width:4.43124;stroke-linecap:round;stroke-dasharray:none;stroke-opacity:1;paint-order:stroke markers fill"
       d="m 30.984483,130.43142 73.486247,21.73614"
       id="path6028" /><path
       style="fill:url(#linearGradient9827);fill-opacity:1;stroke:#b3b3b3;stroke-width:4.85305;stroke-linecap:round;stroke-dasharray:none;stroke-opacity:1;paint-order:stroke markers fill"
       d="m 80.04167,81.94959 29.95766,63.95258"
       id="path6028-2" /><path
       style="fill:url(#linearGradient9841);fill-opacity:1;stroke:#b3b3b3;stroke-width:4.05265;stroke-linecap:round;stroke-dasharray:none;stroke-opacity:1;paint-order:stroke markers fill"
       d="M 128.69088,82.365412 107.12027,144.30276"
       id="path6028-5" /><path
       style="fill:url(#linearGradient9855);fill-opacity:1;stroke:#b3b3b3;stroke-width:4.29429;stroke-linecap:round;stroke-dasharray:none;stroke-opacity:1;paint-order:stroke markers fill"
       d="m 110.8588,154.88997 72.70581,-27.01618"
       id="path6028-1" /><path
       style="fill:url(#linearGradient9869);fill-opacity:1;stroke:#b3b3b3;stroke-width:4.62424;stroke-linecap:round;stroke-dasharray:none;stroke-opacity:1;paint-order:stroke markers fill"
       d="m 106.08785,153.28514 70.65667,24.61868"
       id="path6028-8" /><path
       style="fill:url(#linearGradient9897);fill-opacity:1;stroke:#b3b3b3;stroke-width:4.72098;stroke-linecap:round;stroke-dasharray:none;stroke-opacity:1;paint-order:stroke markers fill"
       d="M 30.824292,177.22115 103.93323,152.42218"
       id="path6028-56" /><path
       style="fill:url(#linearGradient9883);fill-opacity:1;stroke:#b3b3b3;stroke-width:5.3519;stroke-linecap:round;stroke-dasharray:none;stroke-opacity:1;paint-order:stroke markers fill"
       d="m 101.14226,148.95643 28.73704,81.07983"
       id="path6028-0" /><path
       style="fill:url(#linearGradient9982);fill-opacity:1;stroke:#b3b3b3;stroke-width:4.948;stroke-linecap:round;stroke-dasharray:none;stroke-opacity:1;paint-order:stroke markers fill"
       d="M 109.72297,151.82055 81.706334,222.90632"
       id="path6028-0-5" /><rect
       style="fill:url(#radialGradient10053);fill-opacity:1;stroke:none;stroke-width:4.48699;stroke-linecap:round;stroke-dasharray:none;stroke-opacity:1;paint-order:stroke markers fill"
       id="rect10037"
       width="209.02585"
       height="207.9594"
       x="-0.79984385"
       y="47.724018" /><g
       inkscape:label="Layer 1"
       id="layer1-9"
       transform="matrix(0.06294932,0,0,0.06294932,122.05467,216.60015)"><ellipse
         style="fill:#000000;stroke-width:0.264583"
         id="path171"
         cx="107.23271"
         cy="119.68004"
         rx="54.274113"
         ry="58.608501" /><path
         id="path364"
         style="fill:#000000;stroke-width:0.33404"
         d="M 106.71951,182.72871 A 114.31026,79.973709 0 0 0 -7.5220949,261.35595 l 0.079582,-0.82269 H 220.98385 A 114.31026,79.973709 0 0 0 106.71951,182.72871 Z" /></g><g
       inkscape:label="Layer 1"
       id="layer1-9-2"
       transform="matrix(0.06294932,0,0,0.06294932,73.865633,216.8074)"><ellipse
         style="fill:#000000;stroke-width:0.264583"
         id="path171-9"
         cx="107.23271"
         cy="119.68004"
         rx="54.274113"
         ry="58.608501" /><path
         id="path364-75"
         style="fill:#000000;stroke-width:0.33404"
         d="M 106.71951,182.72871 A 114.31026,79.973709 0 0 0 -7.5220949,261.35595 l 0.079582,-0.82269 H 220.98385 A 114.31026,79.973709 0 0 0 106.71951,182.72871 Z" /></g><g
       inkscape:label="Layer 1"
       id="layer1-9-6"
       transform="matrix(0.06294932,0,0,0.06294932,171.24896,167.25374)"><ellipse
         style="fill:#000000;stroke-width:0.264583"
         id="path171-3"
         cx="107.23271"
         cy="119.68004"
         rx="54.274113"
         ry="58.608501" /><path
         id="path364-6"
         style="fill:#000000;stroke-width:0.33404"
         d="M 106.71951,182.72871 A 114.31026,79.973709 0 0 0 -7.5220949,261.35595 l 0.079582,-0.82269 H 220.98385 A 114.31026,79.973709 0 0 0 106.71951,182.72871 Z" /></g><g
       inkscape:label="Layer 1"
       id="layer1-9-3"
       transform="matrix(0.06294932,0,0,0.06294932,171.48463,119.03847)"><ellipse
         style="fill:#000000;stroke-width:0.264583"
         id="path171-0"
         cx="107.23271"
         cy="119.68004"
         rx="54.274113"
         ry="58.608501" /><path
         id="path364-8"
         style="fill:#000000;stroke-width:0.33404"
         d="M 106.71951,182.72871 A 114.31026,79.973709 0 0 0 -7.5220949,261.35595 l 0.079582,-0.82269 H 220.98385 A 114.31026,79.973709 0 0 0 106.71951,182.72871 Z" /></g><g
       inkscape:label="Layer 1"
       id="layer1-9-4"
       transform="matrix(0.06294932,0,0,0.06294932,122.18954,70.047489)"><ellipse
         style="fill:#000000;stroke-width:0.264583"
         id="path171-04"
         cx="107.23271"
         cy="119.68004"
         rx="54.274113"
         ry="58.608501" /><path
         id="path364-64"
         style="fill:#000000;stroke-width:0.33404"
         d="M 106.71951,182.72871 A 114.31026,79.973709 0 0 0 -7.5220949,261.35595 l 0.079582,-0.82269 H 220.98385 A 114.31026,79.973709 0 0 0 106.71951,182.72871 Z" /></g><g
       inkscape:label="Layer 1"
       id="layer1-9-64"
       transform="matrix(0.06294932,0,0,0.06294932,73.79898,70.000355)"><ellipse
         style="fill:#000000;stroke-width:0.264583"
         id="path171-38"
         cx="107.23271"
         cy="119.68004"
         rx="54.274113"
         ry="58.608501" /><path
         id="path364-4"
         style="fill:#000000;stroke-width:0.33404"
         d="M 106.71951,182.72871 A 114.31026,79.973709 0 0 0 -7.5220949,261.35595 l 0.079582,-0.82269 H 220.98385 A 114.31026,79.973709 0 0 0 106.71951,182.72871 Z" /></g><g
       inkscape:label="Layer 1"
       id="layer1-9-0"
       transform="matrix(0.06294932,0,0,0.06294932,24.76504,118.75568)"><ellipse
         style="fill:#000000;stroke-width:0.264583"
         id="path171-09"
         cx="107.23271"
         cy="119.68004"
         rx="54.274113"
         ry="58.608501" /><path
         id="path364-3"
         style="fill:#000000;stroke-width:0.33404"
         d="M 106.71951,182.72871 A 114.31026,79.973709 0 0 0 -7.5220949,261.35595 l 0.079582,-0.82269 H 220.98385 A 114.31026,79.973709 0 0 0 106.71951,182.72871 Z" /></g><g
       inkscape:label="Layer 1"
       id="layer1-9-7"
       transform="matrix(0.06294932,0,0,0.06294932,24.906434,167.01808)"><ellipse
         style="fill:#000000;stroke-width:0.264583"
         id="path171-5"
         cx="107.23271"
         cy="119.68004"
         rx="54.274113"
         ry="58.608501" /><path
         id="path364-7"
         style="fill:#000000;stroke-width:0.33404"
         d="M 106.71951,182.72871 A 114.31026,79.973709 0 0 0 -7.5220949,261.35595 l 0.079582,-0.82269 H 220.98385 A 114.31026,79.973709 0 0 0 106.71951,182.72871 Z" /></g></g></svg>
