<?xml version="1.0" encoding="UTF-8"?>
<svg width="12.204mm" height="12.204mm" version="1.1" viewBox="0 0 12.204 12.204" xmlns="http://www.w3.org/2000/svg">
<g transform="translate(-9.9265 -68.111)">
<rect x="10.108" y="68.31" width="11.84" height="11.857" fill="#fff" stroke-width=".26458"/>
<rect x="10.081" y="72.254" width="1.3229" height="1.3229" fill="#b3b3b3" stroke-width=".26458"/>
<rect x="10.075" y="70.898" width="1.3229" height="1.3229" fill="#b3b3b3" stroke-width=".26458"/>
<rect x="11.406" y="70.873" width="1.3229" height="1.3229" fill="#b3b3b3" stroke-width=".26458"/>
<rect x="12.663" y="70.856" width="1.3229" height="1.3229" fill="#b3b3b3" stroke-width=".26458"/>
<rect x="12.713" y="69.583" width="1.3229" height="1.3229" fill="#b3b3b3" stroke-width=".26458"/>
<rect x="11.398" y="69.583" width="1.3229" height="1.3229" fill="#b3b3b3" stroke-width=".26458"/>
<rect x="12.721" y="68.376" width="1.3229" height="1.3229" fill="#b3b3b3" stroke-width=".26458"/>
<rect x="14.036" y="68.252" width="1.3229" height="1.3229" fill="#b3b3b3" stroke-width=".26458"/>
<rect x="14.027" y="69.575" width="1.3229" height="1.3229" fill="#b3b3b3" stroke-width=".26458"/>
<rect x="14.04" y="70.879" width="1.3229" height="1.3229" fill="#b3b3b3" stroke-width=".26458"/>
<rect x="15.365" y="70.896" width="1.3229" height="1.3229" fill="#b3b3b3" stroke-width=".26458"/>
<rect x="16.687" y="68.268" width="1.3229" height="1.3229" fill="#b3b3b3" stroke-width=".26458"/>
<rect x="18.026" y="69.584" width="1.3229" height="1.3229" fill="#b3b3b3" stroke-width=".26458"/>
<rect x="19.336" y="69.593" width="1.3229" height="1.3229" fill="#b3b3b3" stroke-width=".26458"/>
<rect x="20.663" y="68.26" width="1.3229" height="1.3229" fill="#b3b3b3" stroke-width=".26458"/>
<rect x="19.324" y="70.861" width="1.3229" height="1.3229" fill="#b3b3b3" stroke-width=".26458"/>
<rect x="18.023" y="70.894" width="1.3229" height="1.3229" fill="#b3b3b3" stroke-width=".26458"/>
<rect x="19.327" y="72.229" width="1.3229" height="1.3229" fill="#b3b3b3" stroke-width=".26458"/>
<rect x="18.011" y="74.872" width="1.3229" height="1.3229" fill="#b3b3b3" stroke-width=".26458"/>
<rect x="16.687" y="74.875" width="1.3229" height="1.3229" fill="#b3b3b3" stroke-width=".26458"/>
<rect x="15.369" y="74.878" width="1.3229" height="1.3229" fill="#b3b3b3" stroke-width=".26458"/>
<rect x="15.363" y="73.557" width="1.3229" height="1.3229" fill="#b3b3b3" stroke-width=".26458"/>
<rect x="14.056" y="74.872" width="1.3229" height="1.3229" fill="#b3b3b3" stroke-width=".26458"/>
<rect x="14.042" y="76.202" width="1.3229" height="1.3229" fill="#b3b3b3" stroke-width=".26458"/>
<rect x="14.033" y="77.509" width="1.3229" height="1.3229" fill="#b3b3b3" stroke-width=".26458"/>
<rect x="15.369" y="78.845" width="1.3229" height="1.3229" fill="#b3b3b3" stroke-width=".26458"/>
<rect x="16.693" y="78.848" width="1.3229" height="1.3229" fill="#b3b3b3" stroke-width=".26458"/>
<rect x="16.687" y="77.529" width="1.3229" height="1.3229" fill="#b3b3b3" stroke-width=".26458"/>
<rect x="18.014" y="77.521" width="1.3229" height="1.3229" fill="#b3b3b3" stroke-width=".26458"/>
<rect x="18.003" y="78.842" width="1.3229" height="1.3229" fill="#b3b3b3" stroke-width=".26458"/>
<rect x="19.336" y="77.521" width="1.3229" height="1.3229" fill="#b3b3b3" stroke-width=".26458"/>
<rect x="20.642" y="77.521" width="1.3229" height="1.3229" fill="#b3b3b3" stroke-width=".26458"/>
<rect x="19.336" y="76.229" width="1.3229" height="1.3229" fill="#b3b3b3" stroke-width=".26458"/>
<rect x="12.705" y="74.881" width="1.3229" height="1.3229" fill="#b3b3b3" stroke-width=".26458"/>
<rect x="12.738" y="76.241" width="1.3229" height="1.3229" fill="#b3b3b3" stroke-width=".26458"/>
<rect x="12.725" y="77.523" width="1.3229" height="1.3229" fill="#b3b3b3" stroke-width=".26458"/>
<rect x="10.133" y="78.846" width="1.3229" height="1.3229" fill="#b3b3b3" stroke-width=".26458"/>
<rect x="11.398" y="77.523" width="1.3229" height="1.3229" fill="#b3b3b3" stroke-width=".26458"/>
<rect x="11.409" y="78.769" width="1.3229" height="1.3229" fill="#b3b3b3" stroke-width=".26458"/>
<path d="m9.9265 68.111v12.204h12.204v-12.204zm0.3051 0.3051h11.594v11.594h-11.594z" stroke-width=".2712"/>
<rect x="13.973" y="68.206" width=".14032" height="11.892" stroke-width=".26458"/>
<rect x="17.942" y="68.227" width=".14032" height="11.892" stroke-width=".26458"/>
<rect transform="rotate(-90)" x="-72.303" y="10.169" width=".14032" height="11.892" stroke-width=".26458"/>
<rect transform="rotate(-90)" x="-76.267" y="9.9853" width=".14032" height="11.892" stroke-width=".26458"/>
<rect x="12.702" y="68.219" width=".036963" height="11.892" stroke-width=".1358"/>
<rect x="15.347" y="68.337" width=".036963" height="11.892" stroke-width=".1358"/>
<rect x="16.67" y="68.34" width=".036963" height="11.892" stroke-width=".1358"/>
<rect x="19.315" y="68.387" width=".036963" height="11.892" stroke-width=".1358"/>
<rect x="20.639" y="68.377" width=".036963" height="11.892" stroke-width=".1358"/>
<rect x="11.379" y="68.351" width=".036963" height="11.892" stroke-width=".1358"/>
<rect transform="rotate(90)" x="69.566" y="-21.974" width=".036963" height="11.892" stroke-width=".1358"/>
<rect transform="rotate(90)" x="70.886" y="-21.971" width=".036963" height="11.892" stroke-width=".1358"/>
<rect transform="rotate(90)" x="73.534" y="-21.979" width=".036963" height="11.892" stroke-width=".1358"/>
<rect transform="rotate(90)" x="74.856" y="-21.978" width=".036963" height="11.892" stroke-width=".1358"/>
<rect transform="rotate(90)" x="77.503" y="-21.896" width=".036963" height="11.892" stroke-width=".1358"/>
<rect transform="rotate(90)" x="78.826" y="-21.952" width=".036963" height="11.892" stroke-width=".1358"/>
<text x="17.003872" y="69.429062" fill="#000000" font-size="1.4313px" stroke-width=".26836" xml:space="preserve"><tspan x="17.003872" y="69.429062" fill="#000000" font-family="Baskerville" font-size="1.4313px" stroke-width=".26836">4</tspan></text>
<text x="20.923014" y="69.433197" fill="#000000" font-size="1.4313px" stroke-width=".26836" xml:space="preserve"><tspan x="20.923014" y="69.433197" fill="#000000" font-family="Baskerville" font-size="1.4313px" stroke-width=".26836">8</tspan></text>
<text x="18.363997" y="70.698235" fill="#000000" font-size="1.4313px" stroke-width=".26836" xml:space="preserve"><tspan x="18.363997" y="70.698235" fill="#000000" font-family="Baskerville" font-size="1.4313px" stroke-width=".26836">5</tspan></text>
<text x="19.686913" y="70.677567" fill="#000000" font-size="1.4313px" stroke-width=".26836" xml:space="preserve"><tspan x="19.686913" y="70.677567" fill="#000000" font-family="Baskerville" font-size="1.4313px" stroke-width=".26836">4</tspan></text>
<text x="18.359863" y="72.004623" fill="#000000" font-size="1.4313px" stroke-width=".26836" xml:space="preserve"><tspan x="18.359863" y="72.004623" fill="#000000" font-family="Baskerville" font-size="1.4313px" stroke-width=".26836">2</tspan></text>
<text x="19.653547" y="71.998352" fill="#000000" font-size="1.4313px" stroke-width=".26836" xml:space="preserve"><tspan x="19.653547" y="71.998352" fill="#000000" font-family="Baskerville" font-size="1.4313px" stroke-width=".26836">6</tspan></text>
<text x="13.006183" y="69.429062" fill="#000000" font-size="1.4313px" stroke-width=".26836" xml:space="preserve"><tspan x="13.006183" y="69.429062" fill="#000000" font-family="Baskerville" font-size="1.4313px" stroke-width=".26836">2</tspan></text>
<text x="13.002379" y="70.685577" fill="#000000" font-size="1.4313px" stroke-width=".26836" xml:space="preserve"><tspan x="13.002379" y="70.685577" fill="#000000" font-family="Baskerville" font-size="1.4313px" stroke-width=".26836">6</tspan></text>
<text x="11.692159" y="70.700455" fill="#000000" font-size="1.4313px" stroke-width=".26836" xml:space="preserve"><tspan x="11.692159" y="70.700455" fill="#000000" font-family="Baskerville" font-size="1.4313px" stroke-width=".26836">7</tspan></text>
<text x="11.676454" y="72.019264" fill="#000000" font-size="1.4313px" stroke-width=".26836" xml:space="preserve"><tspan x="11.676454" y="72.019264" fill="#000000" font-family="Baskerville" font-size="1.4313px" stroke-width=".26836">1</tspan></text>
<text x="12.993781" y="71.99614" fill="#000000" font-size="1.4313px" stroke-width=".26836" xml:space="preserve"><tspan x="12.993781" y="71.99614" fill="#000000" font-family="Baskerville" font-size="1.4313px" stroke-width=".26836">8</tspan></text>
<text x="10.420686" y="72.007088" fill="#000000" font-size="1.4313px" stroke-width=".26836" xml:space="preserve"><tspan x="10.420686" y="72.007088" fill="#000000" font-family="Baskerville" font-size="1.4313px" stroke-width=".26836">4</tspan></text>
<text x="10.428452" y="73.387787" fill="#000000" font-size="1.4313px" stroke-width=".26836" xml:space="preserve"><tspan x="10.428452" y="73.387787" fill="#000000" font-family="Baskerville" font-size="1.4313px" stroke-width=".26836">7</tspan></text>
<text x="12.993781" y="75.956833" fill="#000000" font-size="1.4313px" stroke-width=".26836" xml:space="preserve"><tspan x="12.993781" y="75.956833" fill="#000000" font-family="Baskerville" font-size="1.4313px" stroke-width=".26836">3</tspan></text>
<text x="14.39938" y="75.96096" fill="#000000" font-size="1.4313px" stroke-width=".26836" xml:space="preserve"><tspan x="14.39938" y="75.96096" fill="#000000" font-family="Baskerville" font-size="1.4313px" stroke-width=".26836">2</tspan></text>
<text x="15.689224" y="75.977509" fill="#000000" font-size="1.4313px" stroke-width=".26836" xml:space="preserve"><tspan x="15.689224" y="75.977509" fill="#000000" font-family="Baskerville" font-size="1.4313px" stroke-width=".26836">8</tspan></text>
<text x="15.652018" y="74.67939" fill="#000000" font-size="1.4313px" stroke-width=".26836" xml:space="preserve"><tspan x="15.652018" y="74.67939" fill="#000000" font-family="Baskerville" font-size="1.4313px" stroke-width=".26836">4</tspan></text>
<text x="18.319023" y="75.965393" fill="#000000" font-size="1.4313px" stroke-width=".26836" xml:space="preserve"><tspan x="18.319023" y="75.965393" fill="#000000" font-family="Baskerville" font-size="1.4313px" stroke-width=".26836">6</tspan></text>
<text x="19.649706" y="73.356476" fill="#000000" font-size="1.4313px" stroke-width=".26836" xml:space="preserve"><tspan x="19.649706" y="73.356476" fill="#000000" font-family="Baskerville" font-size="1.4313px" stroke-width=".26836">2</tspan></text>
<text x="19.624901" y="77.364494" fill="#000000" font-size="1.4313px" stroke-width=".26836" xml:space="preserve"><tspan x="19.624901" y="77.364494" fill="#000000" font-family="Baskerville" font-size="1.4313px" stroke-width=".26836">1</tspan></text>
<text x="19.657974" y="78.652275" fill="#000000" font-size="1.4313px" stroke-width=".26836" xml:space="preserve"><tspan x="19.657974" y="78.652275" fill="#000000" font-family="Baskerville" font-size="1.4313px" stroke-width=".26836">3</tspan></text>
<text x="18.32679" y="78.639877" fill="#000000" font-size="1.4313px" stroke-width=".26836" xml:space="preserve"><tspan x="18.32679" y="78.639877" fill="#000000" font-family="Baskerville" font-size="1.4313px" stroke-width=".26836">4</tspan></text>
<text x="20.964354" y="78.652275" fill="#000000" font-size="1.4313px" stroke-width=".26836" xml:space="preserve"><tspan x="20.964354" y="78.652275" fill="#000000" font-family="Baskerville" font-size="1.4313px" stroke-width=".26836">5</tspan></text>
<text x="14.395247" y="78.64814" fill="#000000" font-size="1.4313px" stroke-width=".26836" xml:space="preserve"><tspan x="14.395247" y="78.64814" fill="#000000" font-family="Baskerville" font-size="1.4313px" stroke-width=".26836">9</tspan></text>
<text x="14.403514" y="77.316948" fill="#000000" font-size="1.4313px" stroke-width=".26836" xml:space="preserve"><tspan x="14.403514" y="77.316948" fill="#000000" font-family="Baskerville" font-size="1.4313px" stroke-width=".26836">4</tspan></text>
<text x="16.954264" y="78.631607" fill="#000000" font-size="1.4313px" stroke-width=".26836" xml:space="preserve"><tspan x="16.954264" y="78.631607" fill="#000000" font-family="Baskerville" font-size="1.4313px" stroke-width=".26836">2</tspan></text>
<text x="16.987335" y="79.904907" fill="#000000" font-size="1.4313px" stroke-width=".26836" xml:space="preserve"><tspan x="16.987335" y="79.904907" fill="#000000" font-family="Baskerville" font-size="1.4313px" stroke-width=".26836">8</tspan></text>
<text x="15.676822" y="79.896645" fill="#000000" font-size="1.4313px" stroke-width=".26836" xml:space="preserve"><tspan x="15.676822" y="79.896645" fill="#000000" font-family="Baskerville" font-size="1.4313px" stroke-width=".26836">5</tspan></text>
<text x="13.010319" y="77.345894" fill="#000000" font-size="1.4313px" stroke-width=".26836" xml:space="preserve"><tspan x="13.010319" y="77.345894" fill="#000000" font-family="Baskerville" font-size="1.4313px" stroke-width=".26836">7</tspan></text>
<text x="13.026854" y="78.656403" fill="#000000" font-size="1.4313px" stroke-width=".26836" xml:space="preserve"><tspan x="13.026854" y="78.656403" fill="#000000" font-family="Baskerville" font-size="1.4313px" stroke-width=".26836">1</tspan></text>
<text x="11.650194" y="78.635735" fill="#000000" font-size="1.4313px" stroke-width=".26836" xml:space="preserve"><tspan x="11.650194" y="78.635735" fill="#000000" font-family="Baskerville" font-size="1.4313px" stroke-width=".26836">6</tspan></text>
<text x="11.708073" y="79.921448" fill="#000000" font-size="1.4313px" stroke-width=".26836" xml:space="preserve"><tspan x="11.708073" y="79.921448" fill="#000000" font-family="Baskerville" font-size="1.4313px" stroke-width=".26836">3</tspan></text>
<text x="10.426496" y="79.888374" fill="#000000" font-size="1.4313px" stroke-width=".26836" xml:space="preserve"><tspan x="10.426496" y="79.888374" fill="#000000" font-family="Baskerville" font-size="1.4313px" stroke-width=".26836">2</tspan></text>
<text x="14.386977" y="69.437332" fill="#000000" font-size="1.4313px" stroke-width=".26836" xml:space="preserve"><tspan x="14.386977" y="69.437332" fill="#000000" font-family="Baskerville" font-size="1.4313px" stroke-width=".26836">6</tspan></text>
<text x="14.342921" y="70.696022" fill="#000000" font-size="1.4313px" stroke-width=".26836" xml:space="preserve"><tspan x="14.342921" y="70.696022" fill="#000000" font-family="Baskerville" font-size="1.4313px" stroke-width=".26836">8</tspan></text>
<text x="14.349011" y="72.014519" fill="#000000" font-size="1.4313px" stroke-width=".26836" xml:space="preserve"><tspan x="14.349011" y="72.014519" fill="#000000" font-family="Baskerville" font-size="1.4313px" stroke-width=".26836">7</tspan></text>
<text x="15.620069" y="71.965904" fill="#000000" font-size="1.4313px" stroke-width=".26836" xml:space="preserve"><tspan x="15.620069" y="71.965904" fill="#000000" font-family="Baskerville" font-size="1.4313px" stroke-width=".26836">9</tspan></text>
<text x="16.987337" y="75.973373" fill="#000000" font-size="1.4313px" stroke-width=".26836" xml:space="preserve"><tspan x="16.987337" y="75.973373" fill="#000000" font-family="Baskerville" font-size="1.4313px" stroke-width=".26836">9</tspan></text>
<text x="18.347462" y="79.909042" fill="#000000" font-size="1.4313px" stroke-width=".26836" xml:space="preserve"><tspan x="18.347462" y="79.909042" fill="#000000" font-family="Baskerville" font-size="1.4313px" stroke-width=".26836">9</tspan></text>
</g>
</svg>
