<?xml version="1.0" encoding="UTF-8"?>
<svg width="209.03mm" height="207.96mm" version="1.1" viewBox="0 0 209.03 207.96" xml:space="preserve" xmlns="http://www.w3.org/2000/svg" xmlns:xlink="http://www.w3.org/1999/xlink"><defs><linearGradient id="a"><stop stop-color="#fff" offset="0"/><stop stop-color="#fff" stop-opacity="0" offset="1"/></linearGradient><linearGradient id="k" x1="32.049" x2="104.44" y1="140.83" y2="140.83" gradientTransform="matrix(1.0151 0 0 .9608 -.74866 -41.732)" gradientUnits="userSpaceOnUse" xlink:href="#a"/><linearGradient id="l" x1="32.049" x2="104.44" y1="140.83" y2="140.83" gradientTransform="matrix(.41382 0 0 2.8269 67.579 -331.9)" gradientUnits="userSpaceOnUse" xlink:href="#a"/><linearGradient id="m" x1="32.049" x2="104.44" y1="140.83" y2="140.83" gradientTransform="matrix(-.29796 0 0 2.7378 139.04 -319.95)" gradientUnits="userSpaceOnUse" xlink:href="#a"/><linearGradient id="n" x1="32.049" x2="104.44" y1="140.83" y2="140.83" gradientTransform="matrix(.78704 -.57745 .69528 .65366 -3.6158 41.013)" gradientUnits="userSpaceOnUse" xlink:href="#a"/><linearGradient id="o" x1="32.049" x2="104.44" y1="140.83" y2="140.83" gradientTransform="matrix(.97601 0 0 1.0882 75.608 -35.381)" gradientUnits="userSpaceOnUse" xlink:href="#a"/><linearGradient id="p" x1="32.049" x2="104.44" y1="140.83" y2="140.83" gradientTransform="matrix(.39696 0 0 3.584 89.22 -362.95)" gradientUnits="userSpaceOnUse" xlink:href="#a"/><linearGradient id="q" x1="32.049" x2="104.44" y1="140.83" y2="140.83" gradientTransform="matrix(1.0099 0 0 -1.0962 -.74176 271.48)" gradientUnits="userSpaceOnUse" xlink:href="#a"/><linearGradient id="r" x1="32.049" x2="104.44" y1="140.83" y2="140.83" gradientTransform="matrix(-.387 0 0 3.1422 122.93 -302.87)" gradientUnits="userSpaceOnUse" xlink:href="#a"/><radialGradient id="s" cx="103.71" cy="148.24" r="106.76" gradientTransform="matrix(1 0 0 .99501 .79984 -43.518)" gradientUnits="userSpaceOnUse"><stop stop-color="#fff" offset="0"/><stop stop-color="#fff" stop-opacity="0" offset="1"/></radialGradient></defs><circle cx="106.1" cy="106.49" r="55.405" fill="#b3b3b3" style="paint-order:stroke markers fill"/><path class="UnoptimicedTransforms" transform="matrix(.9187 0 0 .9187 57.144 -21.447)" d="m39.01 218.79c0 7.0774-5.7373 12.815-12.815 12.815-7.0774 0-12.815-5.7373-12.815-12.815 0-7.0774 5.7373-12.815 12.815-12.815 7.0774 0 12.815 5.7374 12.815 12.815zm26.911 0c0 7.0774 5.7373 12.815 12.815 12.815 7.0774 0 12.815-5.7373 12.815-12.815 0-7.0774-5.7373-12.815-12.815-12.815-7.0774 0-12.815 5.7374-12.815 12.815zm-26.619-159.42c0.0259-7.0773-5.6904-12.836-12.768-12.862-7.0773-0.0259-12.836 5.6904-12.862 12.768-0.0259 7.0773 5.6904 12.836 12.768 12.862 7.0773 0.0259 12.836-5.6904 12.862-12.768zm26.91 0.09849c0.0259-7.0773 5.7842-12.794 12.862-12.768 7.0773 0.0259 12.794 5.7842 12.768 12.862-0.0259 7.0773-5.7842 12.794-12.862 12.768-7.0773-0.0259-12.794-5.7842-12.768-12.862z" fill="#b3b3b3" style="paint-order:stroke markers fill"/><path class="UnoptimicedTransforms" transform="matrix(0 .9187 -.9187 0 233.23 57.976)" d="m39.01 218.79c0 7.0774-5.7373 12.815-12.815 12.815-7.0774 0-12.815-5.7373-12.815-12.815 0-7.0774 5.7373-12.815 12.815-12.815 7.0774 0 12.815 5.7374 12.815 12.815zm26.911 0c0 7.0774 5.7373 12.815 12.815 12.815 7.0774 0 12.815-5.7373 12.815-12.815 0-7.0774-5.7373-12.815-12.815-12.815-7.0774 0-12.815 5.7374-12.815 12.815zm-26.619-159.42c0.0259-7.0773-5.6904-12.836-12.768-12.862-7.0773-0.0259-12.836 5.6904-12.862 12.768-0.0259 7.0773 5.6904 12.836 12.768 12.862 7.0773 0.0259 12.836-5.6904 12.862-12.768zm26.91 0.09849c0.0259-7.0773 5.7842-12.794 12.862-12.768 7.0773 0.0259 12.794 5.7842 12.768 12.862-0.0259 7.0773-5.7842 12.794-12.862 12.768-7.0773-0.0259-12.794-5.7842-12.768-12.862z" fill="#b3b3b3" style="paint-order:stroke markers fill"/><path class="UnoptimicedTransforms" transform="matrix(.9187 0 0 .9187 57.144 -21.447)" d="m39.01 218.79c0 7.0774-5.7373 12.815-12.815 12.815-7.0774 0-12.815-5.7373-12.815-12.815 0-7.0774 5.7373-12.815 12.815-12.815 7.0774 0 12.815 5.7374 12.815 12.815zm26.911 0c0 7.0774 5.7373 12.815 12.815 12.815 7.0774 0 12.815-5.7373 12.815-12.815 0-7.0774-5.7373-12.815-12.815-12.815-7.0774 0-12.815 5.7374-12.815 12.815zm-26.619-159.42c0.0259-7.0773-5.6904-12.836-12.768-12.862-7.0773-0.0259-12.836 5.6904-12.862 12.768-0.0259 7.0773 5.6904 12.836 12.768 12.862 7.0773 0.0259 12.836-5.6904 12.862-12.768zm26.91 0.09849c0.0259-7.0773 5.7842-12.794 12.862-12.768 7.0773 0.0259 12.794 5.7842 12.768 12.862-0.0259 7.0773-5.7842 12.794-12.862 12.768-7.0773-0.0259-12.794-5.7842-12.768-12.862z" fill="#b3b3b3" style="paint-order:stroke markers fill"/><path class="UnoptimicedTransforms" transform="matrix(.9187 0 0 .9187 57.144 -21.447)" d="m39.01 218.79c0 7.0774-5.7373 12.815-12.815 12.815-7.0774 0-12.815-5.7373-12.815-12.815 0-7.0774 5.7373-12.815 12.815-12.815 7.0774 0 12.815 5.7374 12.815 12.815zm26.911 0c0 7.0774 5.7373 12.815 12.815 12.815 7.0774 0 12.815-5.7373 12.815-12.815 0-7.0774-5.7373-12.815-12.815-12.815-7.0774 0-12.815 5.7374-12.815 12.815zm-26.619-159.42c0.0259-7.0773-5.6904-12.836-12.768-12.862-7.0773-0.0259-12.836 5.6904-12.862 12.768-0.0259 7.0773 5.6904 12.836 12.768 12.862 7.0773 0.0259 12.836-5.6904 12.862-12.768zm26.91 0.09849c0.0259-7.0773 5.7842-12.794 12.862-12.768 7.0773 0.0259 12.794 5.7842 12.768 12.862-0.0259 7.0773-5.7842 12.794-12.862 12.768-7.0773-0.0259-12.794-5.7842-12.768-12.862z" fill="#b3b3b3" style="paint-order:stroke markers fill"/><path d="m31.784 82.706 73.486 21.736" fill="url(#k)" stroke="#b3b3b3" stroke-linecap="round" stroke-width="4.4312" style="paint-order:stroke markers fill"/><path d="m80.842 34.226 29.958 63.953" fill="url(#l)" stroke="#b3b3b3" stroke-linecap="round" stroke-width="4.853" style="paint-order:stroke markers fill"/><path d="m129.49 34.641-21.571 61.937" fill="url(#m)" stroke="#b3b3b3" stroke-linecap="round" stroke-width="4.0526" style="paint-order:stroke markers fill"/><path d="m111.66 107.17 72.706-27.016" fill="url(#n)" stroke="#b3b3b3" stroke-linecap="round" stroke-width="4.2943" style="paint-order:stroke markers fill"/><path d="m106.89 105.57 70.657 24.619" fill="url(#o)" stroke="#b3b3b3" stroke-linecap="round" stroke-width="4.6242" style="paint-order:stroke markers fill"/><path d="m31.624 129.5 73.109-24.799" fill="url(#q)" stroke="#b3b3b3" stroke-linecap="round" stroke-width="4.721" style="paint-order:stroke markers fill"/><path d="m101.94 101.24 28.737 81.08" fill="url(#p)" stroke="#b3b3b3" stroke-linecap="round" stroke-width="5.3519" style="paint-order:stroke markers fill"/><path d="m110.52 104.1-28.017 71.086" fill="url(#r)" stroke="#b3b3b3" stroke-linecap="round" stroke-width="4.948" style="paint-order:stroke markers fill"/><rect y="-7.1054e-15" width="209.03" height="207.96" fill="url(#s)" style="paint-order:stroke markers fill"/><g transform="matrix(.062949 0 0 .062949 122.85 168.88)"><ellipse cx="107.23" cy="119.68" rx="54.274" ry="58.609" stroke-width=".26458"/><path d="m106.72 182.73a114.31 79.974 0 0 0-114.24 78.627l0.079582-0.82269h228.43a114.31 79.974 0 0 0-114.26-77.805z" stroke-width=".33404"/></g><g transform="matrix(.062949 0 0 .062949 74.666 169.09)"><ellipse cx="107.23" cy="119.68" rx="54.274" ry="58.609" stroke-width=".26458"/><path d="m106.72 182.73a114.31 79.974 0 0 0-114.24 78.627l0.079582-0.82269h228.43a114.31 79.974 0 0 0-114.26-77.805z" stroke-width=".33404"/></g><g transform="matrix(.062949 0 0 .062949 172.05 119.53)"><ellipse cx="107.23" cy="119.68" rx="54.274" ry="58.609" stroke-width=".26458"/><path d="m106.72 182.73a114.31 79.974 0 0 0-114.24 78.627l0.079582-0.82269h228.43a114.31 79.974 0 0 0-114.26-77.805z" stroke-width=".33404"/></g><g transform="matrix(.062949 0 0 .062949 172.28 71.316)"><ellipse cx="107.23" cy="119.68" rx="54.274" ry="58.609" stroke-width=".26458"/><path d="m106.72 182.73a114.31 79.974 0 0 0-114.24 78.627l0.079582-0.82269h228.43a114.31 79.974 0 0 0-114.26-77.805z" stroke-width=".33404"/></g><g transform="matrix(.062949 0 0 .062949 122.99 22.323)"><ellipse cx="107.23" cy="119.68" rx="54.274" ry="58.609" stroke-width=".26458"/><path d="m106.72 182.73a114.31 79.974 0 0 0-114.24 78.627l0.079582-0.82269h228.43a114.31 79.974 0 0 0-114.26-77.805z" stroke-width=".33404"/></g><g transform="matrix(.062949 0 0 .062949 74.599 22.276)"><ellipse cx="107.23" cy="119.68" rx="54.274" ry="58.609" stroke-width=".26458"/><path d="m106.72 182.73a114.31 79.974 0 0 0-114.24 78.627l0.079582-0.82269h228.43a114.31 79.974 0 0 0-114.26-77.805z" stroke-width=".33404"/></g><g transform="matrix(.062949 0 0 .062949 25.565 71.036)"><ellipse cx="107.23" cy="119.68" rx="54.274" ry="58.609" stroke-width=".26458"/><path d="m106.72 182.73a114.31 79.974 0 0 0-114.24 78.627l0.079582-0.82269h228.43a114.31 79.974 0 0 0-114.26-77.805z" stroke-width=".33404"/></g><g transform="matrix(.062949 0 0 .062949 25.706 119.3)"><ellipse cx="107.23" cy="119.68" rx="54.274" ry="58.609" stroke-width=".26458"/><path d="m106.72 182.73a114.31 79.974 0 0 0-114.24 78.627l0.079582-0.82269h228.43a114.31 79.974 0 0 0-114.26-77.805z" stroke-width=".33404"/></g></svg>
